#Comment line ignore any data following # character 
#Hierarchical Translation and Rotation (.htr) file 
[Header]	
#Header keywords are followed by a single value 
FileType HTR		#Single word string
DataType HTRS		#Translation followed by rotation and scale data
FileVersion 1		#integer
NumSegments 64		#integer
NumFrames 3		#integer
DataFrameRate 30		#integer, data frame rate in this file
EulerRotationOrder ZYX
CalibrationUnits mm
RotationUnits Degrees
GlobalAxisofGravity Y
BoneLengthAxis Y
ScaleFactor 1.00
[SegmentNames&Hierarchy]
#CHILD	PARENT
Pinger_Root GLOBAL
Pelvis Pinger_Root
L_Hip Pelvis
R_Hip Pelvis
Rear_Leg01 Pelvis
Spine1 Pelvis
L_Leg01 L_Hip
L_Leg02 L_Leg01
L_Leg03 L_Leg02
L_Foot L_Leg03
L_Toe1_01 L_Foot
L_Toe2_01 L_Foot
L_Toe3_01 L_Foot
planeAlignerLeft L_Foot
L_Toe1_02 L_Toe1_01
L_Toe1_03 L_Toe1_02
L_Toe2_02 L_Toe2_01
L_Toe2_03 L_Toe2_02
L_Toe3_02 L_Toe3_01
L_Toe3_03 L_Toe3_02
planeLockWeightLeft planeAlignerLeft
R_Leg01 R_Hip
R_Leg02 R_Leg01
R_Leg03 R_Leg02
R_Foot R_Leg03
planeAlignerRight R_Foot
R_Toe1_01 R_Foot
R_Toe2_01 R_Foot
R_Toe3_01 R_Foot
planeLockWeightRight planeAlignerRight
R_Toe1_02 R_Toe1_01
R_Toe1_03 R_Toe1_02
R_Toe2_02 R_Toe2_01
R_Toe2_03 R_Toe2_02
R_Toe3_02 R_Toe3_01
R_Toe3_03 R_Toe3_02
Rear_Leg02 Rear_Leg01
Rear_Leg03 Rear_Leg02
Rear_Leg04 Rear_Leg03
Rear_Foot Rear_Leg04
planeAlignerCenter Rear_Foot
Rear_Toe1_01 Rear_Foot
Rear_Toe2_01 Rear_Foot
Rear_Toe3_01 Rear_Foot
planeLockWeightCenter planeAlignerCenter
Rear_Toe1_02 Rear_Toe1_01
Rear_Toe1_03 Rear_Toe1_02
Rear_Toe2_02 Rear_Toe2_01
Rear_Toe2_03 Rear_Toe2_02
Rear_Toe3_02 Rear_Toe3_01
Rear_Toe3_03 Rear_Toe3_02
Back_Bone Spine1
Head Spine1
Motor_Bone Back_Bone
Ping_Mechanism Back_Bone
BN_LookIK Head
bottomMouth Head
L_Mouth01 Head
L_mouthFront Head
mouthGun Head
R_Mouth01 Head
R_mouthFront Head
TopMouth Head
weapon_bone Head
[BasePosition]
#SegmentName Tx, Ty, Tz, Rx, Ry, Rz, BoneLength
Pinger_Root 0.000000 0.000000 0.000000 -90.000000 0.000000 0.000000 10.000000 
Pelvis 0.000000 0.000000 0.000000 0.000000 0.000000 0.000000 10.000000 
L_Hip 0.000000 0.000000 0.000000 0.000000 0.000000 0.000000 10.000000 
R_Hip 0.000000 0.000000 0.000000 0.000000 0.000000 0.000000 10.000000 
Rear_Leg01 0.000000 0.000000 0.000000 0.000000 0.000000 0.000000 10.000000 
Spine1 0.000000 0.000000 0.000000 0.000000 0.000000 0.000000 10.000000 
L_Leg01 0.000000 0.000000 0.000000 0.000000 0.000000 0.000000 10.000000 
L_Leg02 0.000000 0.000000 0.000000 0.000000 0.000000 0.000000 10.000000 
L_Leg03 0.000000 0.000000 0.000000 0.000000 0.000000 0.000000 10.000000 
L_Foot 0.000000 0.000000 0.000000 0.000000 0.000000 0.000000 10.000000 
L_Toe1_01 0.000000 0.000000 0.000000 0.000000 0.000000 0.000000 10.000000 
L_Toe2_01 0.000000 0.000000 0.000000 0.000000 0.000000 0.000000 10.000000 
L_Toe3_01 0.000000 0.000000 0.000000 0.000000 0.000000 0.000000 10.000000 
planeAlignerLeft 0.000000 0.000000 0.000000 0.000000 0.000000 0.000000 10.000000 
L_Toe1_02 0.000000 0.000000 0.000000 0.000000 0.000000 0.000000 10.000000 
L_Toe1_03 0.000000 0.000000 0.000000 0.000000 0.000000 0.000000 10.000000 
L_Toe2_02 0.000000 0.000000 0.000000 0.000000 0.000000 0.000000 10.000000 
L_Toe2_03 0.000000 0.000000 0.000000 0.000000 0.000000 0.000000 10.000000 
L_Toe3_02 0.000000 0.000000 0.000000 0.000000 0.000000 0.000000 10.000000 
L_Toe3_03 0.000000 0.000000 0.000000 0.000000 0.000000 0.000000 10.000000 
planeLockWeightLeft 0.000000 0.000000 0.000000 0.000000 0.000000 0.000000 10.000000 
R_Leg01 0.000000 0.000000 0.000000 0.000000 0.000000 0.000000 10.000000 
R_Leg02 0.000000 0.000000 0.000000 0.000000 0.000000 0.000000 10.000000 
R_Leg03 0.000000 0.000000 0.000000 0.000000 0.000000 0.000000 10.000000 
R_Foot 0.000000 0.000000 0.000000 0.000000 0.000000 0.000000 10.000000 
planeAlignerRight 0.000000 0.000000 0.000000 0.000000 0.000000 0.000000 10.000000 
R_Toe1_01 0.000000 0.000000 0.000000 0.000000 0.000000 0.000000 10.000000 
R_Toe2_01 0.000000 0.000000 0.000000 0.000000 0.000000 0.000000 10.000000 
R_Toe3_01 0.000000 0.000000 0.000000 0.000000 0.000000 0.000000 10.000000 
planeLockWeightRight 0.000000 0.000000 0.000000 0.000000 0.000000 0.000000 10.000000 
R_Toe1_02 0.000000 0.000000 0.000000 0.000000 0.000000 0.000000 10.000000 
R_Toe1_03 0.000000 0.000000 0.000000 0.000000 0.000000 0.000000 10.000000 
R_Toe2_02 0.000000 0.000000 0.000000 0.000000 0.000000 0.000000 10.000000 
R_Toe2_03 0.000000 0.000000 0.000000 0.000000 0.000000 0.000000 10.000000 
R_Toe3_02 0.000000 0.000000 0.000000 0.000000 0.000000 0.000000 10.000000 
R_Toe3_03 0.000000 0.000000 0.000000 0.000000 0.000000 0.000000 10.000000 
Rear_Leg02 0.000000 0.000000 0.000000 0.000000 0.000000 0.000000 10.000000 
Rear_Leg03 0.000000 0.000000 0.000000 0.000000 0.000000 0.000000 10.000000 
Rear_Leg04 0.000000 0.000000 0.000000 0.000000 0.000000 0.000000 10.000000 
Rear_Foot 0.000000 0.000000 0.000000 0.000000 0.000000 0.000000 10.000000 
planeAlignerCenter 0.000000 0.000000 0.000000 0.000000 0.000000 0.000000 10.000000 
Rear_Toe1_01 0.000000 0.000000 0.000000 0.000000 0.000000 0.000000 10.000000 
Rear_Toe2_01 0.000000 0.000000 0.000000 0.000000 0.000000 0.000000 10.000000 
Rear_Toe3_01 0.000000 0.000000 0.000000 0.000000 0.000000 0.000000 10.000000 
planeLockWeightCenter 0.000000 0.000000 0.000000 0.000000 0.000000 0.000000 10.000000 
Rear_Toe1_02 0.000000 0.000000 0.000000 0.000000 0.000000 0.000000 10.000000 
Rear_Toe1_03 0.000000 0.000000 0.000000 0.000000 0.000000 0.000000 10.000000 
Rear_Toe2_02 0.000000 0.000000 0.000000 0.000000 0.000000 0.000000 10.000000 
Rear_Toe2_03 0.000000 0.000000 0.000000 0.000000 0.000000 0.000000 10.000000 
Rear_Toe3_02 0.000000 0.000000 0.000000 0.000000 0.000000 0.000000 10.000000 
Rear_Toe3_03 0.000000 0.000000 0.000000 0.000000 0.000000 0.000000 10.000000 
Back_Bone 0.000000 0.000000 0.000000 0.000000 0.000000 0.000000 10.000000 
Head 0.000000 0.000000 0.000000 0.000000 0.000000 0.000000 10.000000 
Motor_Bone 0.000000 0.000000 0.000000 0.000000 0.000000 0.000000 10.000000 
Ping_Mechanism 0.000000 0.000000 0.000000 0.000000 0.000000 0.000000 10.000000 
BN_LookIK 0.000000 0.000000 0.000000 0.000000 0.000000 0.000000 10.000000 
bottomMouth 0.000000 0.000000 0.000000 0.000000 0.000000 0.000000 10.000000 
L_Mouth01 0.000000 0.000000 0.000000 0.000000 0.000000 0.000000 10.000000 
L_mouthFront 0.000000 0.000000 0.000000 0.000000 0.000000 0.000000 10.000000 
mouthGun 0.000000 0.000000 0.000000 0.000000 0.000000 0.000000 10.000000 
R_Mouth01 0.000000 0.000000 0.000000 0.000000 0.000000 0.000000 10.000000 
R_mouthFront 0.000000 0.000000 0.000000 0.000000 0.000000 0.000000 10.000000 
TopMouth 0.000000 0.000000 0.000000 0.000000 0.000000 0.000000 10.000000 
weapon_bone 0.000000 0.000000 0.000000 0.000000 0.000000 0.000000 10.000000 
#Beginning of Data. Separated by tabs
#Fr	Tx	Ty	Tz	Rx	Ry	Rz	SF
[Pinger_Root]
7 777.777832 0.000000 0.000000 -0.000075 -0.000000 -0.000020 777.777832
8 907.407532 0.000000 0.000000 -0.000075 -0.000000 -0.000020 907.407532
9 1037.037109 0.000000 0.000000 -0.000075 -0.000000 -0.000020 1037.037109
[Pelvis]
7 661.271423 217.297379 5234.554199 93.711662 -79.454323 -146.577652 5280.630371
8 642.668274 263.966736 5255.360840 90.143951 -76.717476 -142.547012 5301.086914
9 636.278992 298.132782 5271.817871 87.299591 -75.563339 -139.120285 5318.439453
[L_Hip]
7 5.766392 125.831482 872.656799 -178.250168 -81.786369 87.376007 881.701050
8 5.766392 125.831482 872.656799 -178.250168 -81.786369 87.376007 881.701050
9 5.766392 125.831482 872.656799 -178.250168 -81.786369 87.376007 881.701050
[R_Hip]
7 5.765438 125.836372 -872.654907 -1.748770 81.786041 87.376961 881.699829
8 5.765438 125.836372 -872.654907 -1.748770 81.786041 87.376961 881.699829
9 5.765438 125.836372 -872.654907 -1.748770 81.786041 87.376961 881.699829
[Rear_Leg01]
7 -192.298416 -925.602966 -0.001907 171.845383 9.799822 -160.134003 945.367432
8 -192.298416 -925.602966 -0.001907 171.349289 10.464101 -156.931274 945.367432
9 -192.298416 -925.602966 -0.001907 171.320404 9.356415 -159.168228 945.367432
[Spine1]
7 290.604584 5.007505 0.000477 41.929707 -20.043697 33.680977 290.647736
8 290.604584 5.007505 0.000477 41.403477 -20.656296 36.877785 290.647736
9 290.604584 5.007505 0.000477 40.592827 -21.236279 38.530487 290.647736
[L_Leg01]
7 761.932007 -0.002384 -0.069261 66.479805 -19.506250 -69.196350 761.932068
8 761.932007 -0.002384 -0.069261 68.284164 -15.958025 -70.848183 761.932068
9 761.932007 -0.002384 -0.069261 69.636314 -13.763675 -72.020515 761.932068
[L_Leg02]
7 1441.140503 -0.000954 -0.000715 -1.356237 0.737817 -101.366783 1441.140503
8 1441.140503 -0.000954 -0.000715 -1.344176 0.753529 -99.769897 1441.140503
9 1441.140503 -0.000954 -0.000715 -1.331678 0.768904 -98.172409 1441.140503
[L_Leg03]
7 1686.963989 -0.000715 -0.000954 0.072265 -0.014116 90.204895 1686.963989
8 1686.963989 -0.000715 -0.000954 0.079450 -0.013056 88.654167 1686.963989
9 1686.963989 -0.000715 -0.000954 0.086603 -0.011802 87.103424 1686.963989
[L_Foot]
7 3041.570068 -30.715107 11.297464 -10.140859 16.465582 61.321453 3041.746094
8 3041.570068 -30.715107 11.297464 -10.836102 16.597719 62.300259 3041.746094
9 3041.570068 -30.715107 11.297464 -11.529387 16.741215 63.278000 3041.746094
[L_Toe1_01]
7 -188.216690 -224.732346 -21.137953 89.495331 -2.549388 -164.259766 293.899567
8 -188.216690 -224.732346 -21.137953 89.440964 -2.312401 -163.971130 293.899567
9 -188.216690 -224.732346 -21.137953 89.400009 -2.165307 -163.475266 293.899567
[L_Toe2_01]
7 200.746536 -219.926590 148.838394 -77.657616 -13.889054 -44.431973 332.896027
8 200.746536 -219.926590 148.838394 -77.700775 -13.747919 -44.401184 332.896027
9 200.746536 -219.926590 148.838394 -77.743828 -13.606762 -44.370514 332.896027
[L_Toe3_01]
7 188.832520 -219.859131 -191.078659 -105.560890 15.695956 -45.769112 347.140900
8 188.832520 -219.859131 -191.078659 -105.696243 16.076763 -45.941441 347.140900
9 188.832520 -219.859131 -191.078659 -105.833023 16.457155 -46.115021 347.140900
[planeAlignerLeft]
7 -27.869448 -614.273499 12.911520 0.000000 -90.000000 -90.001900 615.040955
8 -33.934574 -615.556458 8.380978 0.000000 -90.000000 -90.001900 616.548096
9 -39.999699 -616.839539 3.850439 0.000000 -90.000000 -90.001900 618.147095
[L_Toe1_02]
7 413.761139 0.000477 0.000000 0.001407 -23.072332 0.001407 413.761139
8 413.761139 0.000477 0.000000 0.001405 -23.292667 0.001405 413.761139
9 413.761139 0.000477 0.000000 0.001403 -23.513020 0.001403 413.761139
[L_Toe1_03]
7 464.317322 0.000358 -0.000089 0.011608 78.394966 0.011608 464.317322
8 464.317322 0.000358 -0.000089 0.010614 77.300545 0.010614 464.317322
9 464.317322 0.000358 -0.000089 0.009776 76.205811 0.009776 464.317322
[L_Toe2_02]
7 342.235809 -0.000477 0.000238 0.001180 -78.108490 0.001180 342.235809
8 342.235809 -0.000477 0.000238 0.001180 -78.270103 0.001180 342.235809
9 342.235809 -0.000477 0.000238 0.001180 -78.431694 0.001180 342.235809
[L_Toe2_03]
7 420.210846 -0.000715 0.000000 -179.997360 75.021172 -179.993835 420.210846
8 420.210846 -0.000715 0.000000 -179.997635 74.042152 -179.994095 420.210846
9 420.210846 -0.000715 0.000000 -179.997864 73.063316 -179.994339 420.210846
[L_Toe3_02]
7 329.270111 0.000954 0.000000 0.001177 -81.928459 0.001177 329.270111
8 329.270111 0.000954 0.000000 0.001176 -81.981781 0.001176 329.270111
9 329.270111 0.000954 0.000000 0.001176 -82.035187 0.001176 329.270111
[L_Toe3_03]
7 439.137451 -0.001907 0.000954 -179.998093 71.988327 -179.994553 439.137451
8 439.137451 -0.001907 0.000954 -179.998184 71.588951 -179.994644 439.137451
9 439.137451 -0.001907 0.000954 -179.998260 71.189568 -179.994705 439.137451
[planeLockWeightLeft]
7 999.999207 0.098032 0.076255 -0.011826 -0.004376 0.005620 999.999207
8 999.999207 0.098044 0.076252 -0.011826 -0.004376 0.005620 999.999207
9 999.999207 0.098055 0.076248 -0.011826 -0.004376 0.005620 999.999207
[R_Leg01]
7 761.455627 -0.001907 -0.000358 97.724152 31.468735 101.842079 761.455688
8 761.455627 -0.001907 -0.000358 99.019226 36.734539 103.186668 761.455688
9 761.455627 -0.001907 -0.000358 100.079483 39.376457 104.258423 761.455688
[R_Leg02]
7 1441.140625 0.000000 -0.000238 0.222379 0.029366 -63.647202 1441.140625
8 1441.140625 0.000000 -0.000238 0.226971 0.034821 -59.513325 1441.140625
9 1441.140625 0.000000 -0.000238 0.234259 0.037367 -56.246704 1441.140625
[R_Leg03]
7 1686.963989 0.000954 0.001431 -0.145716 0.001535 70.170441 1686.963989
8 1686.963989 0.000954 0.001431 -0.154074 -0.001967 67.617706 1686.963989
9 1686.963989 0.000954 0.001431 -0.167588 -0.009655 64.216606 1686.963989
[R_Foot]
7 3041.560059 -30.531288 -11.204481 -6.636116 -20.092371 106.895256 3041.734131
8 3041.560059 -30.531288 -11.204481 -7.245805 -20.243601 108.188454 3041.734131
9 3041.560059 -30.531288 -11.204481 -8.163206 -20.483564 110.314384 3041.734131
[planeAlignerRight]
7 -23.238987 -817.641724 16.538088 0.000000 -89.960434 -90.005180 818.139099
8 -31.970531 -835.003235 18.662872 0.000000 -89.960434 -90.005180 835.823486
9 -42.347816 -841.589417 19.463959 0.000000 -89.960434 -90.005180 842.878906
[R_Toe1_01]
7 -188.383347 -224.864899 21.052242 91.129791 0.961961 -147.727783 294.101532
8 -188.383347 -224.864899 21.052242 91.169304 0.818339 -145.780090 294.101532
9 -188.383347 -224.864899 21.052242 91.191093 0.751489 -144.710632 294.101532
[R_Toe2_01]
7 200.637817 -220.002121 -148.787384 -104.672646 8.663350 -59.066494 332.857574
8 200.637817 -220.002121 -148.787384 -104.852989 8.386712 -60.266018 332.857574
9 200.637817 -220.002121 -148.787384 -104.992592 8.358853 -60.831715 332.857574
[R_Toe3_01]
7 188.606735 -220.092957 191.126343 -70.309364 -12.305256 -61.402145 347.192566
8 188.606735 -220.092957 191.126343 -69.985291 -12.154117 -62.666267 347.192566
9 188.606735 -220.092957 191.126343 -69.792755 -12.209638 -63.250511 347.192566
[planeLockWeightRight]
7 999.999084 -0.000458 0.076418 -0.011823 -0.004379 -0.000027 999.999084
8 999.999023 -0.000458 0.076432 -0.011823 -0.004379 -0.000027 999.999023
9 999.998901 -0.000458 0.076447 -0.011823 -0.004379 -0.000027 999.998962
[R_Toe1_02]
7 413.762085 0.000477 -0.000119 0.001385 -25.850527 0.001385 413.762085
8 413.762085 0.000477 -0.000119 0.001385 -25.833609 0.001385 413.762085
9 413.762085 0.000477 -0.000119 0.001385 -25.816706 0.001385 413.762085
[R_Toe1_03]
7 464.317810 0.000000 0.001088 0.004360 58.718319 0.004360 464.317810
8 464.317810 0.000000 0.001088 0.003825 54.263115 0.003825 464.317810
9 464.317810 0.000000 0.001088 0.003495 50.761169 0.003495 464.317810
[R_Toe2_02]
7 342.234741 -0.000954 0.000238 0.001189 -71.497520 0.001189 342.234741
8 342.234741 -0.000954 0.000238 0.001190 -71.095840 0.001190 342.234741
9 342.234741 -0.000954 0.000238 0.001189 -71.339180 0.001189 342.234741
[R_Toe2_03]
7 420.210846 0.000715 -0.000268 0.019792 83.201012 0.019792 420.210846
8 420.210846 0.000715 -0.000268 0.017283 82.212753 0.017283 420.210846
9 420.210846 0.000715 -0.000268 0.018738 82.817993 0.018738 420.210846
[R_Toe3_02]
7 329.270355 -0.000477 -0.000954 0.001183 -75.203720 0.001183 329.270355
8 329.270355 -0.000477 -0.000954 0.001184 -74.761192 0.001184 329.270355
9 329.270355 -0.000477 -0.000954 0.001184 -74.935539 0.001184 329.270355
[R_Toe3_03]
7 439.137939 0.000238 0.001431 -0.015067 85.052956 -0.011567 439.137939
8 439.137939 0.000238 0.001431 -0.012548 83.897316 -0.009046 439.137939
9 439.137939 0.000238 0.001431 -0.013413 84.350349 -0.009912 439.137939
[Rear_Leg02]
7 1162.777710 -0.029802 0.005960 23.569805 -8.693285 -122.587402 1162.777710
8 1162.777710 -0.029802 0.005960 16.366535 -16.631174 -104.788612 1162.777710
9 1162.777710 -0.029802 0.005960 15.303273 -14.856638 -112.456184 1162.777710
[Rear_Leg03]
7 607.192505 -0.013351 -0.073195 0.009919 -0.006145 79.909294 607.192505
8 607.192505 -0.013351 -0.073195 0.010177 -0.005707 74.921043 607.192505
9 607.192505 -0.013351 -0.073195 0.010159 -0.005741 75.295349 607.192505
[Rear_Leg04]
7 995.874512 -0.020504 -0.011921 -0.044703 -0.012898 101.968277 995.874573
8 995.874512 -0.020504 -0.011921 -0.045688 -0.016762 83.121750 995.874573
9 995.874512 -0.020504 -0.011921 -0.045846 -0.016325 84.217010 995.874573
[Rear_Foot]
7 3096.176270 -0.067472 -0.041425 -51.703720 59.028332 90.587982 3096.176270
8 3096.176270 -0.067472 -0.041425 -53.862484 62.658054 83.548645 3096.176270
9 3096.176270 -0.067472 -0.041425 -56.850315 65.541290 83.146202 3096.176270
[planeAlignerCenter]
7 5.325467 312.046143 -758.890442 0.000009 0.000003 -179.999985 820.558289
8 0.614471 -126.197769 -930.252319 0.000009 0.000003 -179.999985 938.773499
9 0.615387 -86.189796 -886.472473 0.000009 0.000003 -179.999985 890.652832
[Rear_Toe1_01]
7 0.653352 83.966492 -371.173737 0.092280 39.899185 90.042351 380.553192
8 0.653352 83.966492 -371.173737 0.082493 33.469227 90.035431 380.553192
9 0.653352 83.966492 -371.173737 0.080293 30.710880 90.032593 380.553192
[Rear_Toe2_01]
7 178.200760 -294.826019 -362.060547 121.630424 80.996170 51.015102 499.765686
8 178.200760 -294.826019 -362.060547 -1.669931 50.523289 -74.727402 499.765686
9 178.200760 -294.826019 -362.060547 -1.262418 52.735931 -74.004410 499.765686
[Rear_Toe3_01]
7 -153.359680 -308.780914 -362.060852 -117.576065 80.264229 130.831482 499.952881
8 -153.359680 -308.780914 -362.060852 1.740213 50.594715 -107.171951 499.952881
9 -153.359680 -308.780914 -362.060852 1.249129 52.761230 -108.003754 499.952881
[planeLockWeightCenter]
7 843.750366 0.000305 0.076370 -0.011814 -0.004373 -0.000015 843.750366
8 999.999695 0.000305 0.076094 -0.011814 -0.004373 -0.000015 999.999695
9 999.999695 0.000301 0.076107 -0.011814 -0.004373 -0.000015 999.999695
[Rear_Toe1_02]
7 379.707825 0.194073 0.000477 -0.000767 -33.624729 0.000838 379.707855
8 379.707825 0.194073 0.000477 -0.000767 -33.624729 0.000838 379.707855
9 379.707825 0.194073 0.000477 -0.000767 -33.624729 0.000838 379.707855
[Rear_Toe1_03]
7 500.129700 0.165701 0.000119 0.014345 80.614334 0.014345 500.129761
8 500.129700 0.165701 0.000119 -0.012352 85.328438 -0.015852 500.129761
9 500.129700 0.165701 0.000119 -0.009349 84.063705 -0.012850 500.129761
[Rear_Toe2_02]
7 340.494507 0.000238 -0.000954 179.998825 -86.962234 179.998825 340.494507
8 340.494507 0.000238 -0.000954 0.001262 -46.944180 0.001262 340.494507
9 340.494507 0.000238 -0.000954 0.001217 -59.228600 0.001217 340.494507
[Rear_Toe2_03]
7 433.103577 0.000000 0.000238 -179.996338 53.364685 180.000000 433.103546
8 433.103577 0.000000 0.000238 -0.003308 41.031845 0.000534 433.103546
9 433.103577 0.000000 0.000238 0.003917 55.126171 0.003917 433.103546
[Rear_Toe3_02]
7 340.494141 -0.000358 -0.000477 -179.994171 -87.016853 -179.994171 340.494171
8 340.494141 -0.000358 -0.000477 -0.002496 -47.116776 -0.002496 340.494171
9 340.494141 -0.000358 -0.000477 -0.002409 -59.291206 -0.002409 340.494171
[Rear_Toe3_03]
7 433.103577 0.001431 -0.000238 179.992554 53.730297 179.999908 433.103546
8 433.103577 0.001431 -0.000238 0.000528 41.222019 -0.003311 433.103546
9 433.103577 0.001431 -0.000238 -0.000090 55.204296 -0.003754 433.103546
[Back_Bone]
7 1312.175781 -701.934692 0.000954 -3.264964 -2.253788 -83.843361 1488.125488
8 1312.175781 -701.934692 0.000954 -3.195429 -2.810387 -83.415443 1488.125488
9 1312.175781 -701.934692 0.000954 -3.130025 -3.367467 -82.987991 1488.125488
[Head]
7 1406.159424 809.709290 0.001431 4.766822 -3.891517 0.819367 1622.625488
8 1406.159424 809.709290 0.001431 4.374034 -4.076934 0.375813 1622.625488
9 1406.159424 809.709290 0.001431 4.380298 -4.375607 0.111608 1622.625488
[Motor_Bone]
7 1158.364380 -417.834747 0.000477 -1.034497 -1.094875 -107.077385 1231.419434
8 1158.364380 -417.834747 0.000477 -2.188165 -1.022762 -107.007042 1231.419434
9 1158.364380 -417.834747 0.000477 -2.075365 -0.842422 -106.828514 1231.419434
[Ping_Mechanism]
7 1188.244019 -406.170624 -37.157902 0.000103 -0.000053 82.120995 1256.295776
8 1179.979614 -395.941772 -43.301544 0.000103 -0.000053 82.120995 1245.390137
9 1175.589355 -390.283203 -43.705284 0.000103 -0.000053 82.120995 1239.452026
[BN_LookIK]
7 193.241119 1380.371704 -0.002861 0.000000 89.965736 -31.038179 1393.832153
8 193.241119 1380.371704 -0.002861 0.000000 89.965736 -31.038179 1393.832153
9 193.241119 1380.371704 -0.002861 0.000000 89.965736 -31.038179 1393.832153
[bottomMouth]
7 -435.092926 615.759399 -0.000954 -0.000022 0.000016 73.527184 753.966492
8 -435.092926 615.759399 -0.000954 -0.000022 0.000016 73.527184 753.966492
9 -435.092926 615.759399 -0.000954 -0.000022 0.000016 73.527184 753.966492
[L_Mouth01]
7 554.440979 7.658243 838.222046 150.204178 23.759130 109.605339 1005.027161
8 554.440979 7.658243 838.222046 150.204178 23.759130 109.605339 1005.027161
9 554.440979 7.658243 838.222046 150.204178 23.759130 109.605339 1005.027161
[L_mouthFront]
7 551.629089 934.514771 339.150421 0.000081 2.804060 79.119301 1136.941284
8 551.629089 934.514771 339.150421 0.000081 2.804060 79.119301 1136.941284
9 551.629089 934.514771 339.150421 0.000081 2.804060 79.119301 1136.941284
[mouthGun]
7 55.332661 1627.420898 0.000000 0.000023 0.000009 -11.038128 1628.361328
8 55.332661 1627.420898 0.000000 0.000023 0.000009 -11.038128 1628.361328
9 55.332661 1627.420898 0.000000 0.000023 0.000009 -11.038128 1628.361328
[R_Mouth01]
7 554.442383 7.659197 -838.223938 29.795891 -23.759109 109.605331 1005.029541
8 554.442383 7.659197 -838.223938 29.795891 -23.759109 109.605331 1005.029541
9 554.442383 7.659197 -838.223938 29.795891 -23.759109 109.605331 1005.029541
[R_mouthFront]
7 551.629089 934.514282 -339.151367 0.000029 -2.803930 79.119133 1136.941162
8 551.629089 934.514282 -339.151367 0.000029 -2.803930 79.119133 1136.941162
9 551.629089 934.514282 -339.151367 0.000029 -2.803930 79.119133 1136.941162
[TopMouth]
7 461.269867 -56.106091 -0.008583 -0.000059 -0.000268 92.025169 464.669525
8 461.269867 -56.106091 -0.008583 -0.000059 -0.000268 92.025169 464.669525
9 461.269867 -56.106091 -0.008583 -0.000059 -0.000268 92.025169 464.669525
[weapon_bone]
7 -987.239868 1448.372803 0.001431 0.000000 89.965736 -31.038221 1752.833740
8 -987.239868 1448.372803 0.001431 0.000000 89.965736 -31.038221 1752.833740
9 -987.239868 1448.372803 0.001431 0.000000 89.965736 -31.038221 1752.833740
